<?xml version="1.0" encoding="utf-8"?>
<!-- Generator: Adobe Illustrator 16.0.0, SVG Export Plug-In . SVG Version: 6.00 Build 0)  -->
<!DOCTYPE svg PUBLIC "-//W3C//DTD SVG 1.1//EN" "http://www.w3.org/Graphics/SVG/1.1/DTD/svg11.dtd">
<svg version="1.1" id="Layer_1" xmlns="http://www.w3.org/2000/svg" xmlns:xlink="http://www.w3.org/1999/xlink" x="0px" y="0px"
	 width="455.189px" height="42.99px" viewBox="0 0 455.189 42.99" enable-background="new 0 0 455.189 42.99" xml:space="preserve">
<g>
	<path fill="#FFFFFF" d="M15.792,7.951v27.021h15.141v-6.537c0-1.661,0.325-2.847,0.976-3.554c0.651-0.708,1.501-1.062,2.552-1.062
		c1.027,0,1.867,0.354,2.518,1.062c0.651,0.707,0.976,1.893,0.976,3.554v13.443H4.693c-1.69,0-2.895-0.32-3.614-0.96
		C0.36,40.278,0,39.442,0,38.408c0-1.01,0.36-1.836,1.079-2.476c0.719-0.641,1.924-0.96,3.614-0.96H8.77V7.951H4.693
		c-1.69,0-2.895-0.32-3.614-0.96C0.36,6.351,0,5.514,0,4.481c0-1.033,0.36-1.87,1.079-2.51c0.719-0.641,1.924-0.96,3.614-0.96
		l15.209,0.034c1.69,0,2.895,0.315,3.614,0.943c0.719,0.629,1.079,1.46,1.079,2.493c0,1.033-0.359,1.87-1.079,2.51
		c-0.72,0.641-1.924,0.96-3.614,0.96H15.792z"/>
	<path fill="#FFFFFF" d="M53.397,24.831v10.142h17.915v-3.74c0-1.662,0.325-2.847,0.976-3.555c0.651-0.707,1.501-1.061,2.552-1.061
		c1.027,0,1.867,0.354,2.518,1.061c0.651,0.708,0.976,1.893,0.976,3.555v10.646H45.279c-1.69,0-2.894-0.32-3.614-0.96
		c-0.719-0.641-1.079-1.477-1.079-2.511c0-1.01,0.365-1.836,1.096-2.476c0.731-0.641,1.929-0.96,3.597-0.96h1.096V7.951h-1.096
		c-1.69,0-2.894-0.32-3.614-0.96c-0.719-0.64-1.079-1.477-1.079-2.51c0-1.033,0.359-1.87,1.079-2.51
		c0.72-0.641,1.923-0.96,3.614-0.96l31.514,0.034v10.512c0,1.64-0.32,2.813-0.959,3.521c-0.64,0.708-1.484,1.062-2.535,1.062
		c-1.051,0-1.901-0.348-2.552-1.044c-0.65-0.696-0.976-1.875-0.976-3.538V7.951H53.397v9.973h6.166c0-1.797,0.171-2.953,0.514-3.47
		c0.708-1.1,1.712-1.651,3.014-1.651c1.028,0,1.867,0.354,2.518,1.061c0.65,0.708,0.976,1.893,0.976,3.555v7.951
		c0,1.505-0.183,2.516-0.548,3.032c-0.731,1.056-1.712,1.584-2.946,1.584c-1.302,0-2.307-0.551-3.014-1.651
		c-0.343-0.517-0.514-1.685-0.514-3.504H53.397z"/>
	<path fill="#FFFFFF" d="M95.251,26.279v8.693h2.535c1.69,0,2.895,0.319,3.614,0.96c0.719,0.64,1.079,1.477,1.079,2.51
		c0,1.011-0.36,1.836-1.079,2.477c-0.719,0.64-1.924,0.96-3.614,0.96H87.133c-1.69,0-2.895-0.32-3.614-0.96
		c-0.719-0.641-1.079-1.477-1.079-2.511c0-1.01,0.365-1.836,1.096-2.476c0.731-0.641,1.93-0.96,3.597-0.96h1.096V7.951h-1.096
		c-1.69,0-2.895-0.32-3.614-0.96c-0.719-0.64-1.079-1.477-1.079-2.51c0-1.033,0.36-1.87,1.079-2.51
		c0.719-0.641,1.924-0.96,3.614-0.96l15.894,0.034c4.955,0,8.797,1.208,11.526,3.622c2.729,2.415,4.093,5.352,4.093,8.81
		c0,2.156-0.64,4.116-1.918,5.879c-1.279,1.763-3.209,3.33-5.789,4.7c1.484,1.279,3.071,2.92,4.761,4.918
		c1.05,1.281,2.466,3.28,4.248,5.998c1.781,0,2.957,0.18,3.528,0.539c1.028,0.696,1.542,1.673,1.542,2.931
		c0,1.011-0.354,1.836-1.062,2.477c-0.708,0.64-1.907,0.96-3.597,0.96h-4.008c-5.686-8.647-10.402-13.848-14.147-15.6H95.251z
		 M95.251,19.373h5.48c2.032,0,3.848-0.303,5.447-0.91c2.146-0.809,3.591-1.662,4.333-2.561c0.742-0.898,1.113-1.786,1.113-2.662
		c0-1.302-0.708-2.51-2.124-3.622c-1.416-1.111-3.482-1.667-6.2-1.667h-8.05V19.373z"/>
	<path fill="#FFFFFF" d="M164.097,21.461c0,6.132-1.981,11.236-5.943,15.313c-3.962,4.077-8.546,6.115-13.753,6.115
		c-4.681,0-8.906-1.695-12.673-5.087c-4.659-4.2-6.988-9.647-6.988-16.341c0-6.693,2.33-12.151,6.988-16.374
		C135.495,1.696,139.72,0,144.401,0c5.207,0,9.791,2.039,13.753,6.115C162.116,10.192,164.097,15.308,164.097,21.461z
		 M157.075,21.461c0-4.2-1.291-7.676-3.871-10.428c-2.581-2.751-5.515-4.127-8.804-4.127c-3.266,0-6.188,1.381-8.769,4.144
		c-2.581,2.763-3.871,6.233-3.871,10.411s1.29,7.643,3.871,10.394c2.581,2.752,5.503,4.127,8.769,4.127
		c3.289,0,6.223-1.369,8.804-4.109C155.785,29.132,157.075,25.662,157.075,21.461z"/>
	<path fill="#FFFFFF" d="M189.817,24.73v10.242h4.727c1.69,0,2.895,0.319,3.614,0.96c0.72,0.64,1.079,1.477,1.079,2.51
		c0,1.011-0.359,1.836-1.079,2.477c-0.719,0.64-1.924,0.96-3.614,0.96h-16.476c-1.667,0-2.86-0.32-3.58-0.96
		c-0.719-0.641-1.079-1.477-1.079-2.511c0-1.01,0.359-1.836,1.079-2.476c0.72-0.641,1.913-0.96,3.58-0.96h4.728V24.73L171.183,7.951
		c-1.553,0-2.689-0.325-3.409-0.977c-0.719-0.651-1.079-1.482-1.079-2.493c0-1.033,0.359-1.87,1.079-2.51
		c0.72-0.641,1.924-0.96,3.614-0.96l6.371,0.034c1.69,0,2.895,0.315,3.614,0.943c0.719,0.629,1.079,1.46,1.079,2.493
		c0,1.55-0.925,2.707-2.774,3.47l6.645,9.636l6.508-9.636c-1.027-0.382-1.758-0.864-2.192-1.449
		c-0.434-0.584-0.651-1.258-0.651-2.021c0-1.033,0.359-1.864,1.079-2.493c0.719-0.628,1.923-0.955,3.614-0.977l6.611,0.034
		c1.69,0,2.895,0.315,3.614,0.943c0.72,0.629,1.079,1.46,1.079,2.493c0,1.033-0.365,1.87-1.096,2.51
		c-0.731,0.641-1.918,0.96-3.563,0.96L189.817,24.73z"/>
	<path fill="#FFFFFF" d="M215.879,39.048V5.29h-3.871c-0.685,0-1.176-0.129-1.473-0.388c-0.297-0.258-0.445-0.601-0.445-1.027
		c0-0.426,0.148-0.769,0.445-1.027s0.788-0.388,1.473-0.388h18.085c3.586,0,6.504,1.017,8.752,3.049
		c2.25,2.033,3.375,4.419,3.375,7.16c0,3.459-1.885,6.255-5.652,8.389c2.992,1.056,5.184,2.46,6.578,4.212
		c1.393,1.752,2.088,3.684,2.088,5.795c0,1.887-0.457,3.61-1.369,5.171c-0.914,1.562-2.313,2.893-4.197,3.993
		c-1.883,1.101-3.934,1.65-6.148,1.65h-21.511c-0.685,0-1.176-0.135-1.473-0.404s-0.445-0.606-0.445-1.011
		c0-0.427,0.148-0.77,0.445-1.027s0.788-0.388,1.473-0.388H215.879z M218.756,19.979h10.174c2.17,0,4.156-0.393,5.961-1.179
		c1.393-0.628,2.477-1.538,3.254-2.729c0.775-1.19,1.164-2.403,1.164-3.639c0-1.774-0.844-3.408-2.535-4.902
		c-1.689-1.493-3.893-2.24-6.609-2.24h-11.408V19.979z M218.756,39.048h14.559c1.85,0,3.459-0.404,4.83-1.213
		c1.369-0.809,2.408-1.808,3.117-2.998c0.707-1.19,1.063-2.426,1.063-3.707c0-1.437-0.51-2.83-1.525-4.178s-2.426-2.369-4.23-3.065
		s-4.293-1.044-7.467-1.044h-10.346V39.048z"/>
	<path fill="#FFFFFF" d="M283.971,5.29v23.651c0,3.976-1.348,7.311-4.042,10.006s-5.949,4.043-9.763,4.043
		c-2.558,0-4.829-0.55-6.816-1.65c-1.985-1.101-3.676-2.768-5.068-5.003c-1.394-2.235-2.09-4.7-2.09-7.396V5.29h-2.432
		c-0.686,0-1.177-0.129-1.474-0.388c-0.297-0.258-0.445-0.601-0.445-1.027c0-0.426,0.16-0.786,0.479-1.078
		c0.274-0.224,0.754-0.337,1.439-0.337h10.617c0.686,0,1.177,0.129,1.474,0.388c0.296,0.258,0.445,0.601,0.445,1.027
		c0,0.427-0.149,0.77-0.445,1.027c-0.297,0.259-0.788,0.388-1.474,0.388h-5.308v23.651c0,3.122,1.084,5.772,3.254,7.951
		c2.168,2.179,4.737,3.268,7.706,3.268c1.896,0,3.625-0.426,5.189-1.279s2.935-2.168,4.11-3.942s1.765-3.773,1.765-5.997V5.29h-5.31
		c-0.686,0-1.177-0.129-1.473-0.388c-0.298-0.258-0.445-0.601-0.445-1.027c0-0.426,0.147-0.769,0.445-1.027
		c0.296-0.258,0.787-0.388,1.473-0.388h10.619c0.685,0,1.176,0.129,1.473,0.388s0.445,0.601,0.445,1.027
		c0,0.427-0.148,0.77-0.445,1.027c-0.297,0.259-0.788,0.388-1.473,0.388H283.971z"/>
	<path fill="#FFFFFF" d="M306.952,5.29v33.759h19.114V27.795c0-0.674,0.137-1.156,0.411-1.448c0.273-0.292,0.627-0.438,1.062-0.438
		c0.411,0,0.754,0.141,1.027,0.421c0.274,0.281,0.411,0.77,0.411,1.466v14.083h-31.788c-0.685,0-1.177-0.135-1.473-0.404
		c-0.297-0.27-0.445-0.606-0.445-1.011c0-0.427,0.148-0.77,0.445-1.027c0.296-0.258,0.788-0.388,1.473-0.388h6.851V5.29h-6.851
		c-0.685,0-1.177-0.129-1.473-0.388c-0.297-0.258-0.445-0.601-0.445-1.027c0-0.426,0.148-0.769,0.445-1.027
		c0.296-0.258,0.788-0.388,1.473-0.388h16.613c0.686,0,1.176,0.129,1.474,0.388c0.296,0.258,0.445,0.601,0.445,1.027
		c0,0.427-0.149,0.77-0.445,1.027c-0.298,0.259-0.788,0.388-1.474,0.388H306.952z"/>
	<path fill="#FFFFFF" d="M355.28,5.29v33.759h9.864c0.686,0,1.177,0.13,1.474,0.388c0.296,0.258,0.445,0.601,0.445,1.027
		c0,0.404-0.149,0.741-0.445,1.011c-0.297,0.27-0.788,0.404-1.474,0.404h-22.606c-0.686,0-1.177-0.135-1.473-0.404
		c-0.298-0.27-0.445-0.606-0.445-1.011c0-0.427,0.147-0.77,0.445-1.027c0.296-0.258,0.787-0.388,1.473-0.388h9.865V5.29h-9.865
		c-0.686,0-1.177-0.129-1.473-0.388c-0.298-0.258-0.445-0.601-0.445-1.027c0-0.426,0.147-0.769,0.445-1.027
		c0.296-0.258,0.787-0.388,1.473-0.388h22.606c0.686,0,1.177,0.129,1.474,0.388c0.296,0.258,0.445,0.601,0.445,1.027
		c0,0.427-0.149,0.77-0.445,1.027c-0.297,0.259-0.788,0.388-1.474,0.388H355.28z"/>
	<path fill="#FFFFFF" d="M386.342,24.292v14.757h5.31c0.708,0,1.21,0.13,1.507,0.388s0.445,0.601,0.445,1.027
		c0,0.404-0.148,0.741-0.445,1.011s-0.799,0.404-1.507,0.404h-12.058c-0.686,0-1.177-0.135-1.473-0.404
		c-0.297-0.27-0.445-0.606-0.445-1.011c0-0.427,0.148-0.77,0.445-1.027c0.296-0.258,0.787-0.388,1.473-0.388h3.871V5.29h-3.871
		c-0.686,0-1.177-0.129-1.473-0.388c-0.297-0.258-0.445-0.601-0.445-1.027c0-0.426,0.148-0.769,0.445-1.027
		c0.296-0.258,0.787-0.388,1.473-0.388h17.401c3.585,0,6.605,1.118,9.061,3.353c2.454,2.235,3.682,4.756,3.682,7.563
		c0,2.021-0.759,3.925-2.277,5.711c-1.52,1.785-4.06,3.273-7.622,4.464c2.056,1.393,3.813,2.965,5.275,4.717
		c1.461,1.752,3.803,5.346,7.022,10.781h2.192c0.685,0,1.176,0.13,1.473,0.388s0.445,0.601,0.445,1.027
		c0,0.404-0.148,0.741-0.445,1.011s-0.788,0.404-1.473,0.404h-3.837c-3.563-6.267-6.32-10.467-8.272-12.601s-4.196-3.796-6.73-4.986
		H386.342z M386.342,21.461h7.845c2.512,0,4.789-0.449,6.833-1.348c2.044-0.898,3.528-1.954,4.453-3.167s1.388-2.448,1.388-3.706
		c0-1.887-0.965-3.684-2.895-5.391c-1.93-1.707-4.276-2.561-7.039-2.561h-10.585V21.461z"/>
	<path fill="#FFFFFF" d="M455.189,22.27c0,3.773-0.776,7.272-2.329,10.495s-3.694,5.733-6.423,7.529
		c-2.729,1.797-5.657,2.695-8.786,2.695c-4.636,0-8.718-1.937-12.246-5.812c-3.528-3.874-5.292-8.844-5.292-14.908
		c0-6.086,1.764-11.062,5.292-14.925c3.528-3.863,7.61-5.795,12.246-5.795c3.129,0,6.052,0.898,8.77,2.695
		c2.717,1.797,4.858,4.301,6.423,7.513C454.407,14.971,455.189,18.475,455.189,22.27z M452.278,22.27
		c0-4.604-1.359-8.737-4.076-12.398c-2.718-3.661-6.234-5.492-10.551-5.492c-4.042,0-7.496,1.747-10.361,5.239
		c-2.866,3.493-4.3,7.71-4.3,12.651c0,5.256,1.502,9.552,4.505,12.887c3.003,3.336,6.389,5.003,10.156,5.003
		c4.316,0,7.833-1.824,10.551-5.475C450.918,31.036,452.278,26.897,452.278,22.27z"/>
</g>
<g>
</g>
<g>
</g>
<g>
</g>
<g>
</g>
<g>
</g>
<g>
</g>
</svg>
