<?xml version="1.0" encoding="utf-8"?>
<!-- Generator: Adobe Illustrator 16.0.0, SVG Export Plug-In . SVG Version: 6.00 Build 0)  -->
<!DOCTYPE svg PUBLIC "-//W3C//DTD SVG 1.1//EN" "http://www.w3.org/Graphics/SVG/1.1/DTD/svg11.dtd">
<svg version="1.1" id="Layer_1" xmlns="http://www.w3.org/2000/svg" xmlns:xlink="http://www.w3.org/1999/xlink" x="0px" y="0px"
	 width="546.308px" height="51.588px" viewBox="0 0 546.308 51.588" enable-background="new 0 0 546.308 51.588"
	 xml:space="preserve">
<g>
	<path fill="#FFFFFF" d="M14.017,6.347v40.51h22.937V33.354c0-0.809,0.165-1.388,0.493-1.738c0.329-0.351,0.753-0.526,1.274-0.526
		c0.493,0,0.904,0.169,1.233,0.506c0.329,0.337,0.493,0.924,0.493,1.759v16.899H2.302c-0.822,0-1.412-0.162-1.768-0.485
		C0.178,49.445,0,49.041,0,48.556c0-0.512,0.178-0.923,0.534-1.232c0.356-0.31,0.945-0.466,1.768-0.466h8.221V6.347H2.302
		c-0.822,0-1.412-0.155-1.768-0.465C0.178,5.573,0,5.162,0,4.649c0-0.512,0.178-0.923,0.534-1.233
		c0.356-0.31,0.945-0.465,1.768-0.465h19.936c0.822,0,1.411,0.155,1.768,0.465c0.356,0.31,0.534,0.722,0.534,1.233
		c0,0.512-0.178,0.923-0.534,1.233c-0.356,0.31-0.945,0.465-1.768,0.465H14.017z"/>
	<path fill="#FFFFFF" d="M59.021,27.411v19.446h26.554V36.831c0-0.809,0.158-1.388,0.473-1.738c0.314-0.35,0.732-0.525,1.253-0.525
		c0.521,0,0.938,0.176,1.254,0.525c0.314,0.351,0.473,0.93,0.473,1.738v13.423H50.923c-0.822,0-1.412-0.162-1.767-0.485
		c-0.356-0.323-0.535-0.728-0.535-1.213c0-0.512,0.178-0.923,0.535-1.232c0.355-0.31,0.945-0.466,1.767-0.466h4.645V6.347h-4.645
		c-0.822,0-1.412-0.155-1.767-0.465c-0.356-0.31-0.535-0.721-0.535-1.233c0-0.512,0.178-0.923,0.535-1.233
		c0.355-0.31,0.945-0.465,1.767-0.465h36.296v11.684c0,0.809-0.158,1.389-0.473,1.739c-0.315,0.351-0.733,0.525-1.253,0.525
		c-0.521,0-0.939-0.175-1.254-0.525c-0.315-0.35-0.473-0.93-0.473-1.739V6.347H59.021v17.668h12.373v-3.841
		c0-0.809,0.165-1.388,0.493-1.739c0.329-0.35,0.753-0.525,1.274-0.525c0.493,0,0.904,0.176,1.233,0.525
		c0.329,0.351,0.494,0.93,0.494,1.739v11.078c0,0.809-0.165,1.389-0.494,1.738c-0.329,0.351-0.74,0.525-1.233,0.525
		c-0.521,0-0.945-0.175-1.274-0.525c-0.329-0.35-0.493-0.93-0.493-1.738v-3.841H59.021z"/>
	<path fill="#FFFFFF" d="M109.286,29.149v17.708h6.371c0.849,0,1.452,0.156,1.809,0.466c0.356,0.31,0.535,0.721,0.535,1.232
		c0,0.485-0.179,0.89-0.535,1.213c-0.356,0.323-0.959,0.485-1.809,0.485h-14.469c-0.822,0-1.412-0.162-1.767-0.485
		c-0.356-0.323-0.535-0.728-0.535-1.213c0-0.512,0.178-0.923,0.535-1.232c0.355-0.31,0.945-0.466,1.767-0.466h4.645V6.347h-4.645
		c-0.822,0-1.412-0.155-1.767-0.465c-0.356-0.31-0.535-0.721-0.535-1.233c0-0.512,0.178-0.923,0.535-1.233
		c0.355-0.31,0.945-0.465,1.767-0.465h20.882c4.302,0,7.926,1.341,10.872,4.023c2.945,2.682,4.418,5.708,4.418,9.076
		c0,2.426-0.911,4.71-2.733,6.853c-1.823,2.143-4.871,3.929-9.146,5.357c2.466,1.671,4.576,3.558,6.33,5.66
		c1.753,2.103,4.563,6.415,8.426,12.938h2.631c0.822,0,1.411,0.156,1.768,0.466c0.356,0.31,0.534,0.721,0.534,1.232
		c0,0.485-0.178,0.89-0.534,1.213c-0.356,0.323-0.945,0.485-1.768,0.485h-4.604c-4.274-7.52-7.583-12.56-9.926-15.121
		c-2.343-2.56-5.036-4.555-8.077-5.983H109.286z M109.286,25.753h9.413c3.014,0,5.748-0.539,8.2-1.617
		c2.453-1.078,4.234-2.345,5.344-3.8s1.665-2.938,1.665-4.447c0-2.264-1.158-4.42-3.474-6.469c-2.316-2.048-5.132-3.073-8.447-3.073
		h-12.701V25.753z"/>
	<path fill="#FFFFFF" d="M191.901,26.724c0,4.528-0.932,8.727-2.795,12.594c-1.864,3.868-4.433,6.88-7.707,9.036
		c-3.275,2.156-6.789,3.234-10.543,3.234c-5.563,0-10.461-2.324-14.695-6.974c-4.234-4.649-6.351-10.613-6.351-17.891
		c0-7.304,2.117-13.274,6.351-17.91c4.233-4.636,9.131-6.954,14.695-6.954c3.754,0,7.262,1.079,10.523,3.234
		c3.26,2.157,5.83,5.162,7.707,9.016C190.962,17.964,191.901,22.169,191.901,26.724z M188.407,26.724
		c0-5.525-1.631-10.484-4.891-14.878c-3.262-4.393-7.481-6.59-12.661-6.59c-4.85,0-8.996,2.096-12.434,6.287
		c-3.439,4.191-5.159,9.252-5.159,15.181c0,6.308,1.801,11.462,5.405,15.465c3.603,4.002,7.666,6.004,12.188,6.004
		c5.179,0,9.399-2.189,12.661-6.57C186.776,37.242,188.407,32.276,188.407,26.724z"/>
	<path fill="#FFFFFF" d="M222.889,28.907v17.95h8.961c0.822,0,1.411,0.156,1.767,0.466c0.356,0.31,0.535,0.721,0.535,1.232
		c0,0.485-0.179,0.89-0.535,1.213c-0.356,0.323-0.945,0.485-1.767,0.485h-21.416c-0.822,0-1.412-0.162-1.767-0.485
		c-0.356-0.323-0.535-0.728-0.535-1.213c0-0.512,0.171-0.923,0.514-1.232s0.938-0.466,1.788-0.466h8.961v-17.95l-15.168-22.56
		h-2.056c-0.822,0-1.412-0.155-1.767-0.465c-0.356-0.31-0.535-0.721-0.535-1.233c0-0.512,0.178-0.923,0.535-1.233
		c0.355-0.31,0.945-0.465,1.767-0.465h9.496c0.822,0,1.411,0.155,1.768,0.465c0.356,0.31,0.534,0.722,0.534,1.233
		c0,0.512-0.178,0.923-0.534,1.233c-0.356,0.31-0.945,0.465-1.768,0.465h-3.412l12.907,19.124l12.619-19.124h-3.37
		c-0.85,0-1.453-0.155-1.809-0.465c-0.356-0.31-0.535-0.721-0.535-1.233c0-0.512,0.178-0.923,0.535-1.233
		c0.355-0.31,0.959-0.465,1.809-0.465h9.454c0.822,0,1.411,0.155,1.768,0.465c0.356,0.31,0.534,0.722,0.534,1.233
		c0,0.512-0.178,0.923-0.534,1.233c-0.356,0.31-0.945,0.465-1.768,0.465h-2.055L222.889,28.907z"/>
	<path fill="#FFFFFF" d="M254.123,41.966V9.541h-1.315c-2.028,0-3.473-0.384-4.336-1.152c-0.863-0.769-1.295-1.772-1.295-3.012
		c0-1.239,0.432-2.244,1.295-3.012c0.863-0.768,2.308-1.152,4.336-1.152h21.128c5.041,0,9.098,1.381,12.168,4.144
		c3.068,2.763,4.604,6.044,4.604,9.844c0,1.806-0.357,3.504-1.07,5.094c-0.713,1.591-1.795,3.06-3.246,4.407
		c2.658,1.563,4.65,3.39,5.98,5.479c1.328,2.089,1.994,4.454,1.994,7.096c0,2.102-0.48,4.057-1.439,5.862
		c-0.713,1.374-1.59,2.466-2.631,3.274c-1.396,1.132-3.109,2.056-5.139,2.77c-2.027,0.715-4.563,1.071-7.604,1.071h-24.745
		c-2.028,0-3.473-0.384-4.336-1.152c-0.863-0.768-1.295-1.771-1.295-3.012c0-1.213,0.438-2.203,1.315-2.972
		c0.876-0.769,2.315-1.152,4.316-1.152H254.123z M262.549,21.589h9.25c3.314,0,6.068-0.822,8.262-2.466
		c1.479-1.105,2.219-2.479,2.219-4.124c0-1.455-0.699-2.729-2.096-3.82c-1.398-1.092-3.617-1.638-6.66-1.638h-10.974V21.589z
		 M262.549,41.966h14.55c3.426,0,5.838-0.498,7.236-1.496c1.068-0.754,1.602-1.832,1.602-3.234c0-1.671-1.055-3.315-3.164-4.933
		c-2.111-1.617-5.139-2.425-9.084-2.425h-11.14V41.966z"/>
	<path fill="#FFFFFF" d="M340.849,9.541v23.49c0,5.121-1.871,9.474-5.611,13.059s-8.242,5.377-13.504,5.377
		c-2.604,0-5.049-0.452-7.338-1.354c-2.287-0.902-4.344-2.229-6.164-3.982c-1.824-1.752-3.24-3.578-4.254-5.478
		c-1.014-1.9-1.521-4.44-1.521-7.621V9.541c-1.781,0-3.098-0.39-3.945-1.172c-0.85-0.781-1.275-1.779-1.275-2.992
		c0-1.239,0.426-2.237,1.275-2.992c0.848-0.754,2.301-1.132,4.357-1.132l11.055-0.04c2.029,0,3.475,0.384,4.338,1.152
		c0.863,0.769,1.295,1.773,1.295,3.012c0,1.24-0.432,2.244-1.295,3.012c-0.863,0.768-2.309,1.152-4.338,1.152h-3.041v24.218
		c0,2.479,1.049,4.67,3.145,6.569c2.096,1.9,4.625,2.851,7.584,2.851c1.973,0,3.822-0.458,5.549-1.375
		c1.727-0.916,3.139-2.25,4.234-4.002c0.686-1.105,1.027-2.452,1.027-4.043V9.541h-3.041c-2.029,0-3.475-0.384-4.338-1.152
		c-0.863-0.769-1.295-1.772-1.295-3.012c0-1.239,0.432-2.244,1.295-3.012c0.863-0.768,2.309-1.152,4.338-1.152l11.057,0.04
		c2.027,0,3.473,0.378,4.336,1.132c0.863,0.755,1.295,1.752,1.295,2.992c0,1.213-0.424,2.21-1.273,2.992
		C343.945,9.151,342.628,9.541,340.849,9.541z"/>
	<path fill="#FFFFFF" d="M368.341,9.541v32.425h18.168v-7.844c0-1.994,0.391-3.416,1.172-4.265c0.781-0.849,1.803-1.273,3.063-1.273
		c1.232,0,2.24,0.425,3.021,1.273c0.781,0.849,1.172,2.271,1.172,4.265v16.132h-39.914c-2.027,0-3.473-0.384-4.336-1.152
		c-0.863-0.768-1.295-1.771-1.295-3.012c0-1.213,0.432-2.203,1.295-2.972s2.309-1.152,4.336-1.152h4.893V9.541h-4.893
		c-2.027,0-3.473-0.384-4.336-1.152c-0.863-0.769-1.295-1.772-1.295-3.012c0-1.239,0.432-2.244,1.295-3.012
		c0.863-0.768,2.309-1.152,4.336-1.152l18.252,0.04c2.027,0,3.473,0.378,4.336,1.132c0.863,0.755,1.295,1.752,1.295,2.992
		c0,1.24-0.432,2.244-1.295,3.012c-0.863,0.768-2.309,1.152-4.336,1.152H368.341z"/>
	<path fill="#FFFFFF" d="M426.333,9.541v32.425h8.51c2.027,0,3.473,0.384,4.336,1.152s1.295,1.772,1.295,3.012
		c0,1.213-0.432,2.204-1.295,2.972c-0.863,0.769-2.309,1.152-4.336,1.152h-25.445c-2.027,0-3.473-0.384-4.336-1.152
		c-0.863-0.768-1.295-1.771-1.295-3.012c0-1.213,0.432-2.203,1.295-2.972s2.309-1.152,4.336-1.152h8.51V9.541h-8.51
		c-2.027,0-3.473-0.384-4.336-1.152c-0.863-0.769-1.295-1.772-1.295-3.012c0-1.239,0.432-2.244,1.295-3.012
		c0.863-0.768,2.309-1.152,4.336-1.152l25.445,0.04c2.027,0,3.473,0.378,4.336,1.132c0.863,0.755,1.295,1.752,1.295,2.992
		c0,1.24-0.432,2.244-1.295,3.012c-0.863,0.768-2.309,1.152-4.336,1.152H426.333z"/>
	<path fill="#FFFFFF" d="M463.693,31.535v10.431h3.043c2.027,0,3.473,0.384,4.336,1.152s1.295,1.772,1.295,3.012
		c0,1.213-0.432,2.204-1.295,2.972c-0.863,0.769-2.309,1.152-4.336,1.152h-12.785c-2.027,0-3.473-0.384-4.336-1.152
		c-0.863-0.768-1.295-1.771-1.295-3.012c0-1.213,0.438-2.203,1.316-2.972c0.875-0.769,2.314-1.152,4.314-1.152h1.316V9.541h-1.316
		c-2.027,0-3.473-0.384-4.336-1.152c-0.863-0.769-1.295-1.772-1.295-3.012c0-1.239,0.432-2.244,1.295-3.012
		c0.863-0.768,2.309-1.152,4.336-1.152l19.074,0.04c5.945,0,10.557,1.449,13.832,4.346c3.273,2.898,4.912,6.422,4.912,10.573
		c0,2.587-0.768,4.939-2.303,7.055c-1.535,2.116-3.85,3.996-6.947,5.64c1.781,1.537,3.686,3.504,5.715,5.903
		c1.26,1.536,2.959,3.936,5.096,7.196c2.139,0,3.549,0.216,4.234,0.646c1.234,0.836,1.85,2.009,1.85,3.518
		c0,1.213-0.424,2.204-1.273,2.972c-0.85,0.769-2.289,1.152-4.316,1.152h-4.809c-6.824-10.377-12.482-16.616-16.977-18.719H463.693z
		 M463.693,23.247h6.578c2.438,0,4.617-0.364,6.535-1.092c2.576-0.97,4.309-1.994,5.199-3.073c0.891-1.078,1.336-2.143,1.336-3.194
		c0-1.563-0.85-3.012-2.549-4.346s-4.178-2.001-7.439-2.001h-9.66V23.247z"/>
	<path fill="#FFFFFF" d="M546.308,25.753c0,7.358-2.377,13.484-7.133,18.375c-4.754,4.892-10.254,7.338-16.502,7.338
		c-5.619,0-10.688-2.035-15.209-6.104c-5.592-5.04-8.385-11.576-8.385-19.609c0-8.032,2.793-14.581,8.385-19.649
		C511.986,2.035,517.054,0,522.673,0c6.248,0,11.748,2.446,16.502,7.338C543.931,12.23,546.308,18.369,546.308,25.753z
		 M537.882,25.753c0-5.04-1.549-9.211-4.646-12.513c-3.096-3.302-6.617-4.953-10.563-4.953c-3.92,0-7.428,1.657-10.523,4.973
		c-3.098,3.315-4.645,7.479-4.645,12.493s1.547,9.171,4.645,12.473c3.096,3.302,6.604,4.952,10.523,4.952
		c3.945,0,7.467-1.644,10.563-4.933C536.333,34.958,537.882,30.794,537.882,25.753z"/>
</g>
<g>
</g>
<g>
</g>
<g>
</g>
<g>
</g>
<g>
</g>
<g>
</g>
</svg>
